<svg width="401" height="402" viewBox="0 0 401 402" fill="none" xmlns="http://www.w3.org/2000/svg">
<ellipse cx="200.5" cy="201" rx="200.5" ry="201" fill="#5AFFE9"/>
<ellipse cx="200.5" cy="201" rx="200.5" ry="201" fill="url(#paint0_linear)"/>
<path d="M107.496 335.602C102.776 336.415 98.5443 337.311 94.8008 338.287C91.0573 339.426 86.4186 339.996 80.8848 339.996C74.8626 339.996 70.224 338.287 66.9688 334.869C63.7135 331.451 62.0859 327.626 62.0859 323.395C62.0859 319.977 62.6556 315.582 63.7949 310.211C64.9342 304.677 65.5039 299.143 65.5039 293.609C64.3646 272.613 62.8184 251.861 60.8652 231.354C59.0749 210.683 57.2845 191.803 55.4941 174.713C53.7038 157.623 52.1576 143.056 50.8555 131.012C49.5534 118.805 48.9023 110.504 48.9023 106.109C48.9023 103.18 49.6348 100.494 51.0996 98.0527C52.5645 95.4486 54.599 93.1699 57.2031 91.2168C59.8073 89.2637 62.8184 87.7988 66.2363 86.8223C69.8171 85.6829 73.5605 85.1133 77.4668 85.1133C85.1165 85.1133 90.7318 86.334 94.3125 88.7754C97.8932 91.054 100.09 94.7975 100.904 100.006C105.462 134.999 108.717 167.145 110.67 196.441C112.786 225.576 114.251 252.919 115.064 278.473C115.064 282.216 116.041 285.064 117.994 287.018C120.11 288.971 122.796 289.947 126.051 289.947C132.561 289.947 139.153 289.622 145.826 288.971C152.499 288.157 159.173 287.343 165.846 286.529C172.519 285.715 179.111 284.983 185.621 284.332C192.294 283.518 198.723 283.111 204.908 283.111C208.977 283.111 212.232 283.6 214.674 284.576C217.278 285.553 219.231 286.855 220.533 288.482C221.998 290.11 222.893 291.982 223.219 294.098C223.707 296.051 223.951 298.004 223.951 299.957C223.951 303.049 223.626 306.142 222.975 309.234C222.324 312.327 221.184 315.175 219.557 317.779C217.929 320.221 215.732 322.255 212.965 323.883C210.198 325.673 206.699 326.731 202.467 327.057C182.447 329.01 164.137 330.475 147.535 331.451C131.096 332.428 117.75 333.811 107.496 335.602Z" fill="black"/>
<path d="M224.447 236.621C221.143 237.191 218.181 237.817 215.561 238.501C212.94 239.299 209.693 239.697 205.819 239.697C201.604 239.697 198.357 238.501 196.078 236.108C193.799 233.716 192.66 231.038 192.66 228.076C192.66 225.684 193.059 222.607 193.856 218.848C194.654 214.974 195.053 211.1 195.053 207.227C194.255 192.529 193.173 178.003 191.806 163.647C190.552 149.178 189.299 135.962 188.046 123.999C186.793 112.036 185.71 101.839 184.799 93.4082C183.887 84.8633 183.432 79.0527 183.432 75.9766C183.432 73.9258 183.944 72.0459 184.97 70.3369C185.995 68.514 187.419 66.9189 189.242 65.5518C191.065 64.1846 193.173 63.1592 195.565 62.4756C198.072 61.6781 200.692 61.2793 203.427 61.2793C208.782 61.2793 212.712 62.1338 215.219 63.8428C217.725 65.4378 219.263 68.0583 219.833 71.7041C223.023 96.1995 225.302 118.701 226.669 139.209C228.15 159.603 229.175 178.743 229.745 196.631C229.745 199.251 230.429 201.245 231.796 202.612C233.277 203.979 235.157 204.663 237.436 204.663C241.993 204.663 246.607 204.435 251.278 203.979C255.95 203.41 260.621 202.84 265.292 202.271C269.963 201.701 274.577 201.188 279.135 200.732C283.806 200.163 288.306 199.878 292.636 199.878C295.484 199.878 297.763 200.22 299.472 200.903C301.295 201.587 302.662 202.498 303.573 203.638C304.599 204.777 305.225 206.087 305.453 207.568C305.795 208.936 305.966 210.303 305.966 211.67C305.966 213.835 305.738 215.999 305.282 218.164C304.826 220.329 304.029 222.323 302.89 224.146C301.75 225.854 300.212 227.279 298.275 228.418C296.339 229.671 293.889 230.412 290.927 230.64C276.913 232.007 264.096 233.032 252.475 233.716C240.967 234.399 231.625 235.368 224.447 236.621Z" fill="black"/>
<line y1="-2.5" x2="123.26" y2="-2.5" transform="matrix(0.83772 -0.5461 0.544449 0.838794 24.1152 276.347)" stroke="black" stroke-width="5"/>
<line y1="-2.5" x2="57.1598" y2="-2.5" transform="matrix(0.96462 0.263645 -0.26259 0.964907 123.363 210.04)" stroke="black" stroke-width="5"/>
<line y1="-2.5" x2="125.521" y2="-2.5" transform="matrix(0.774713 -0.632313 0.630677 0.776046 178.5 225.11)" stroke="black" stroke-width="5"/>
<line x1="272.955" y1="144.372" x2="369.217" y2="112.626" stroke="black" stroke-width="5"/>
<path d="M238.377 269.195C237.433 269.195 236.538 269.065 235.691 268.805C234.878 268.512 234.161 268.121 233.543 267.633C232.957 267.112 232.485 266.51 232.127 265.826C231.769 265.143 231.59 264.394 231.59 263.58C231.59 262.213 232.127 261.106 233.201 260.26C234.308 259.413 235.773 258.99 237.596 258.99C238.442 258.99 239.256 259.153 240.037 259.479C240.818 259.771 241.502 260.178 242.088 260.699C242.706 261.22 243.195 261.839 243.553 262.555C243.911 263.238 244.09 263.954 244.09 264.703C244.09 266.103 243.569 267.21 242.527 268.023C241.518 268.805 240.135 269.195 238.377 269.195ZM231.688 284.088C231.688 282.949 232.176 282.021 233.152 281.305C234.161 280.556 235.48 280.182 237.107 280.182C240.037 280.182 241.6 281.191 241.795 283.209C241.925 284.609 242.055 286.188 242.186 287.945C242.348 289.703 242.495 291.575 242.625 293.561C242.788 295.514 242.918 297.548 243.016 299.664C243.146 301.747 243.26 303.814 243.357 305.865C243.455 307.883 243.536 309.837 243.602 311.725C243.667 313.613 243.699 315.338 243.699 316.9C243.699 318.528 243.113 319.749 241.941 320.562C240.802 321.376 239.126 321.783 236.912 321.783C235.903 321.783 235.105 321.539 234.52 321.051C233.966 320.595 233.689 319.911 233.689 319C233.689 314.508 233.576 310.309 233.348 306.402C233.152 302.464 232.924 298.964 232.664 295.904C232.436 292.844 232.208 290.305 231.98 288.287C231.785 286.236 231.688 284.837 231.688 284.088ZM248.582 292.096C247.833 292.031 247.231 291.542 246.775 290.631C246.32 289.719 246.092 288.71 246.092 287.604C246.092 287.083 246.141 286.578 246.238 286.09C246.303 285.569 246.434 285.113 246.629 284.723C246.824 284.332 247.068 284.023 247.361 283.795C247.654 283.535 247.996 283.404 248.387 283.404C249.591 283.404 250.975 283.372 252.537 283.307C254.1 283.209 255.776 283.111 257.566 283.014C258.478 282.916 258.982 282.379 259.08 281.402C259.373 276.682 259.78 272.613 260.301 269.195C260.822 265.777 261.456 262.896 262.205 260.553C262.954 258.176 263.8 256.256 264.744 254.791C265.721 253.326 266.795 252.203 267.967 251.422C268.325 251.161 268.748 250.901 269.236 250.641C269.725 250.348 270.18 250.201 270.604 250.201C271.417 250.201 272.264 250.413 273.143 250.836C274.054 251.227 274.884 251.747 275.633 252.398C276.414 253.017 277.049 253.733 277.537 254.547C278.025 255.328 278.27 256.109 278.27 256.891C278.27 257.184 278.204 257.428 278.074 257.623C277.944 257.786 277.781 257.949 277.586 258.111C276.316 259.055 275.193 260.113 274.217 261.285C273.24 262.457 272.41 263.889 271.727 265.582C271.043 267.275 270.473 269.309 270.018 271.686C269.562 274.062 269.22 276.926 268.992 280.279C268.992 280.8 269.074 281.191 269.236 281.451C269.432 281.679 269.773 281.793 270.262 281.793C271.531 281.793 272.801 281.695 274.07 281.5C275.372 281.305 276.609 281.109 277.781 280.914C278.953 280.686 280.06 280.475 281.102 280.279C282.143 280.084 283.071 279.986 283.885 279.986C284.471 279.986 284.894 280.344 285.154 281.061C285.447 281.744 285.594 282.59 285.594 283.6C285.594 284.186 285.545 284.788 285.447 285.406C285.35 286.025 285.187 286.578 284.959 287.066C284.764 287.555 284.503 287.978 284.178 288.336C283.852 288.661 283.445 288.857 282.957 288.922L269.969 290.289C269.285 290.387 268.862 290.663 268.699 291.119C268.569 291.575 268.504 292.21 268.504 293.023C268.504 300.217 268.683 306.402 269.041 311.578C269.399 316.754 269.79 321.1 270.213 324.615C270.669 328.163 271.076 330.947 271.434 332.965C271.792 335.016 271.971 336.497 271.971 337.408C271.971 338.092 271.694 338.71 271.141 339.264C270.62 339.817 269.936 340.289 269.09 340.68C268.276 341.07 267.381 341.363 266.404 341.559C265.428 341.786 264.516 341.9 263.67 341.9C262.856 341.9 262.124 341.754 261.473 341.461C260.854 341.201 260.496 340.745 260.398 340.094C260.073 337.815 259.796 335.309 259.568 332.574C259.34 329.872 259.145 326.861 258.982 323.541C258.852 320.253 258.755 316.656 258.689 312.75C258.624 308.811 258.592 304.498 258.592 299.811C258.592 298.606 258.592 297.434 258.592 296.295C258.592 295.156 258.624 294.016 258.689 292.877C258.689 291.9 258.152 291.412 257.078 291.412L248.582 292.096ZM324.949 308.307C325.893 307.493 326.821 307.086 327.732 307.086C328.253 307.086 328.725 307.216 329.148 307.477C329.572 307.737 330.044 308.144 330.564 308.697C331.053 309.446 331.395 310.064 331.59 310.553C331.818 311.008 331.932 311.464 331.932 311.92C331.932 312.896 331.443 313.824 330.467 314.703C328.904 316.005 327.212 317.177 325.389 318.219C323.566 319.228 321.661 320.09 319.676 320.807C317.69 321.523 315.639 322.06 313.523 322.418C311.408 322.809 309.308 323.004 307.225 323.004C304.588 323.004 302.114 322.662 299.803 321.979C297.492 321.327 295.424 320.383 293.602 319.146C291.811 317.91 290.298 316.428 289.061 314.703C287.824 312.945 286.945 310.976 286.424 308.795C286.131 307.883 285.854 307.298 285.594 307.037C285.366 306.744 284.975 306.598 284.422 306.598C283.217 306.598 282.29 306.305 281.639 305.719C280.988 305.133 280.662 304.286 280.662 303.18C280.662 302.724 280.695 302.431 280.76 302.301L280.857 301.324C281.02 300.152 281.329 299.306 281.785 298.785C282.273 298.264 283.022 298.004 284.031 298.004H284.764C286.131 298.004 287.091 297.369 287.645 296.1C288.654 293.854 289.939 291.803 291.502 289.947C293.064 288.092 294.822 286.513 296.775 285.211C298.729 283.876 300.812 282.851 303.025 282.135C305.271 281.386 307.55 281.012 309.861 281.012C312.27 281.012 314.516 281.37 316.6 282.086C318.715 282.77 320.555 283.73 322.117 284.967C323.68 286.204 324.9 287.652 325.779 289.312C326.691 290.973 327.146 292.763 327.146 294.684C327.146 296.018 326.886 297.239 326.365 298.346C325.844 299.452 325.096 300.429 324.119 301.275C323.143 302.089 321.954 302.757 320.555 303.277C319.188 303.798 317.625 304.14 315.867 304.303L298.924 306.012C298.273 306.012 297.736 306.174 297.312 306.5C296.922 306.826 296.727 307.265 296.727 307.818C296.727 308.665 297.036 309.479 297.654 310.26C298.305 311.041 299.152 311.741 300.193 312.359C301.268 312.945 302.488 313.417 303.855 313.775C305.255 314.133 306.688 314.312 308.152 314.312C309.552 314.312 310.984 314.182 312.449 313.922C313.947 313.629 315.411 313.222 316.844 312.701C318.309 312.18 319.725 311.562 321.092 310.846C322.459 310.097 323.745 309.251 324.949 308.307ZM314.061 295.709C314.549 295.611 314.972 295.383 315.33 295.025C315.688 294.635 315.867 294.163 315.867 293.609C315.867 293.121 315.688 292.665 315.33 292.242C314.972 291.819 314.484 291.445 313.865 291.119C313.247 290.761 312.531 290.484 311.717 290.289C310.903 290.094 310.04 289.996 309.129 289.996C307.794 289.996 306.427 290.191 305.027 290.582C303.628 290.973 302.358 291.493 301.219 292.145C300.079 292.763 299.152 293.463 298.436 294.244C297.719 294.993 297.361 295.742 297.361 296.49C297.361 297.239 297.817 297.613 298.729 297.613C299.282 297.613 300.177 297.548 301.414 297.418C302.651 297.288 304.018 297.141 305.516 296.979C307.013 296.783 308.527 296.572 310.057 296.344C311.587 296.116 312.921 295.904 314.061 295.709Z" fill="black"/>
<path d="M310.406 212.137C310.406 211.971 310.426 211.785 310.465 211.58C310.504 211.375 310.523 211.15 310.523 210.906C310.523 210.74 310.45 210.613 310.304 210.525C310.167 210.438 310.011 210.34 309.835 210.232C309.659 210.125 309.498 209.988 309.352 209.822C309.215 209.656 309.146 209.417 309.146 209.104C309.146 208.88 309.205 208.655 309.322 208.431C309.449 208.206 309.63 208.001 309.864 207.815C310.44 207.386 311.036 207 311.651 206.658C312.276 206.316 312.896 206.028 313.512 205.794C314.137 205.56 314.752 205.379 315.357 205.252C315.963 205.125 316.544 205.062 317.101 205.062C318.038 205.062 318.917 205.237 319.737 205.589C320.567 205.931 321.285 206.404 321.891 207.01C322.506 207.605 322.989 208.309 323.341 209.119C323.702 209.92 323.883 210.779 323.883 211.697C323.883 212.596 323.692 213.45 323.312 214.261C322.94 215.062 322.438 215.765 321.803 216.37C321.168 216.976 320.421 217.454 319.562 217.806C318.712 218.167 317.813 218.348 316.866 218.348C315.938 218.348 315.079 218.191 314.288 217.879C313.497 217.566 312.813 217.137 312.237 216.59C311.661 216.033 311.212 215.379 310.89 214.627C310.567 213.865 310.406 213.035 310.406 212.137ZM317.188 215.711C317.599 215.711 318.023 215.628 318.463 215.462C318.902 215.296 319.303 215.057 319.664 214.744C320.035 214.422 320.338 214.031 320.572 213.572C320.816 213.113 320.938 212.596 320.938 212.02C320.938 211.434 320.831 210.887 320.616 210.379C320.401 209.871 320.104 209.432 319.723 209.061C319.352 208.68 318.907 208.382 318.39 208.167C317.882 207.952 317.33 207.845 316.734 207.845C315.65 207.845 314.82 208.128 314.244 208.694C313.668 209.251 313.38 210.11 313.38 211.272C313.38 211.907 313.473 212.498 313.658 213.045C313.854 213.582 314.122 214.051 314.464 214.451C314.806 214.842 315.206 215.149 315.665 215.374C316.134 215.599 316.642 215.711 317.188 215.711ZM333.551 205.574C334.02 205.574 334.464 205.613 334.884 205.691C335.304 205.76 335.685 205.838 336.026 205.926C336.368 206.004 336.661 206.082 336.905 206.16C337.149 206.229 337.325 206.263 337.433 206.263C337.521 206.263 337.604 206.219 337.682 206.131C337.76 206.033 337.857 205.931 337.975 205.823C338.092 205.716 338.248 205.618 338.443 205.53C338.639 205.433 338.897 205.384 339.22 205.384C339.591 205.384 339.884 205.481 340.099 205.677C340.313 205.862 340.421 206.097 340.421 206.38C340.421 209.954 340.299 212.991 340.055 215.491C339.811 217.981 339.415 220.008 338.868 221.57C338.321 223.133 337.613 224.266 336.744 224.969C335.875 225.672 334.82 226.023 333.58 226.023C333.014 226.023 332.423 225.896 331.808 225.643C331.202 225.389 330.646 225.062 330.138 224.661C329.63 224.271 329.21 223.836 328.878 223.357C328.556 222.879 328.395 222.42 328.395 221.98C328.395 221.834 328.473 221.663 328.629 221.468C328.785 221.272 328.976 221.082 329.2 220.896C329.425 220.711 329.659 220.555 329.903 220.428C330.147 220.301 330.357 220.237 330.533 220.237C330.719 220.237 330.875 220.311 331.002 220.457C331.129 220.613 331.246 220.804 331.354 221.028C331.471 221.253 331.588 221.497 331.705 221.761C331.822 222.034 331.969 222.283 332.145 222.508C332.32 222.732 332.535 222.918 332.789 223.064C333.043 223.221 333.36 223.299 333.741 223.299C335.87 223.299 337.12 220.047 337.491 213.543C337.491 213.25 337.408 213.104 337.242 213.104C337.105 213.104 336.998 213.172 336.92 213.309C336.002 214.549 334.928 215.481 333.697 216.106C332.477 216.722 331.119 217.029 329.625 217.029C328.932 217.029 328.292 216.927 327.706 216.722C327.12 216.507 326.612 216.214 326.183 215.843C325.763 215.462 325.436 215.013 325.201 214.495C324.967 213.968 324.85 213.392 324.85 212.767C324.85 212.151 324.957 211.546 325.172 210.95C325.396 210.345 325.704 209.778 326.095 209.251C326.495 208.714 326.969 208.221 327.516 207.771C328.062 207.322 328.658 206.937 329.303 206.614C329.947 206.282 330.626 206.028 331.339 205.853C332.062 205.667 332.799 205.574 333.551 205.574ZM330.079 214.334C331.417 214.334 332.643 213.914 333.756 213.074C334.869 212.225 335.821 210.994 336.612 209.383C336.632 209.324 336.646 209.28 336.656 209.251C336.666 209.212 336.671 209.173 336.671 209.134C336.671 209.036 336.568 208.934 336.363 208.826C336.158 208.719 335.89 208.626 335.558 208.548C335.226 208.47 334.845 208.406 334.415 208.357C333.995 208.299 333.57 208.27 333.141 208.27C332.447 208.27 331.778 208.387 331.134 208.621C330.489 208.855 329.918 209.168 329.42 209.559C328.922 209.949 328.521 210.394 328.219 210.892C327.916 211.39 327.765 211.907 327.765 212.444C327.765 213.021 327.975 213.479 328.395 213.821C328.824 214.163 329.386 214.334 330.079 214.334ZM350.631 205.574C351.1 205.574 351.544 205.613 351.964 205.691C352.384 205.76 352.765 205.838 353.106 205.926C353.448 206.004 353.741 206.082 353.985 206.16C354.229 206.229 354.405 206.263 354.513 206.263C354.601 206.263 354.684 206.219 354.762 206.131C354.84 206.033 354.938 205.931 355.055 205.823C355.172 205.716 355.328 205.618 355.523 205.53C355.719 205.433 355.978 205.384 356.3 205.384C356.671 205.384 356.964 205.481 357.179 205.677C357.394 205.862 357.501 206.097 357.501 206.38C357.501 209.954 357.379 212.991 357.135 215.491C356.891 217.981 356.495 220.008 355.948 221.57C355.401 223.133 354.693 224.266 353.824 224.969C352.955 225.672 351.9 226.023 350.66 226.023C350.094 226.023 349.503 225.896 348.888 225.643C348.282 225.389 347.726 225.062 347.218 224.661C346.71 224.271 346.29 223.836 345.958 223.357C345.636 222.879 345.475 222.42 345.475 221.98C345.475 221.834 345.553 221.663 345.709 221.468C345.865 221.272 346.056 221.082 346.28 220.896C346.505 220.711 346.739 220.555 346.983 220.428C347.228 220.301 347.438 220.237 347.613 220.237C347.799 220.237 347.955 220.311 348.082 220.457C348.209 220.613 348.326 220.804 348.434 221.028C348.551 221.253 348.668 221.497 348.785 221.761C348.902 222.034 349.049 222.283 349.225 222.508C349.4 222.732 349.615 222.918 349.869 223.064C350.123 223.221 350.44 223.299 350.821 223.299C352.95 223.299 354.2 220.047 354.571 213.543C354.571 213.25 354.488 213.104 354.322 213.104C354.186 213.104 354.078 213.172 354 213.309C353.082 214.549 352.008 215.481 350.777 216.106C349.557 216.722 348.199 217.029 346.705 217.029C346.012 217.029 345.372 216.927 344.786 216.722C344.2 216.507 343.692 216.214 343.263 215.843C342.843 215.462 342.516 215.013 342.281 214.495C342.047 213.968 341.93 213.392 341.93 212.767C341.93 212.151 342.037 211.546 342.252 210.95C342.477 210.345 342.784 209.778 343.175 209.251C343.575 208.714 344.049 208.221 344.596 207.771C345.143 207.322 345.738 206.937 346.383 206.614C347.027 206.282 347.706 206.028 348.419 205.853C349.142 205.667 349.879 205.574 350.631 205.574ZM347.159 214.334C348.497 214.334 349.723 213.914 350.836 213.074C351.949 212.225 352.901 210.994 353.692 209.383C353.712 209.324 353.727 209.28 353.736 209.251C353.746 209.212 353.751 209.173 353.751 209.134C353.751 209.036 353.648 208.934 353.443 208.826C353.238 208.719 352.97 208.626 352.638 208.548C352.306 208.47 351.925 208.406 351.495 208.357C351.075 208.299 350.65 208.27 350.221 208.27C349.527 208.27 348.858 208.387 348.214 208.621C347.569 208.855 346.998 209.168 346.5 209.559C346.002 209.949 345.602 210.394 345.299 210.892C344.996 211.39 344.845 211.907 344.845 212.444C344.845 213.021 345.055 213.479 345.475 213.821C345.904 214.163 346.466 214.334 347.159 214.334ZM362.159 202.059C361.876 202.059 361.607 202.02 361.354 201.941C361.109 201.854 360.895 201.736 360.709 201.59C360.533 201.434 360.392 201.253 360.284 201.048C360.177 200.843 360.123 200.618 360.123 200.374C360.123 199.964 360.284 199.632 360.606 199.378C360.938 199.124 361.378 198.997 361.925 198.997C362.179 198.997 362.423 199.046 362.657 199.144C362.892 199.231 363.097 199.354 363.272 199.51C363.458 199.666 363.604 199.852 363.712 200.066C363.819 200.271 363.873 200.486 363.873 200.711C363.873 201.131 363.717 201.463 363.404 201.707C363.102 201.941 362.687 202.059 362.159 202.059ZM360.152 206.526C360.152 206.185 360.299 205.906 360.592 205.691C360.895 205.467 361.29 205.354 361.778 205.354C362.657 205.354 363.126 205.657 363.185 206.263C363.224 206.683 363.263 207.156 363.302 207.684C363.351 208.211 363.395 208.772 363.434 209.368C363.482 209.954 363.521 210.564 363.551 211.199C363.59 211.824 363.624 212.444 363.653 213.06C363.683 213.665 363.707 214.251 363.727 214.817C363.746 215.384 363.756 215.901 363.756 216.37C363.756 216.858 363.58 217.225 363.229 217.469C362.887 217.713 362.384 217.835 361.72 217.835C361.417 217.835 361.178 217.762 361.002 217.615C360.836 217.479 360.753 217.273 360.753 217C360.753 215.652 360.719 214.393 360.65 213.221C360.592 212.039 360.523 210.989 360.445 210.071C360.377 209.153 360.309 208.392 360.24 207.786C360.182 207.171 360.152 206.751 360.152 206.526ZM366.715 205.179C366.715 205.032 366.778 204.891 366.905 204.754C367.032 204.607 367.198 204.48 367.403 204.373C367.608 204.256 367.838 204.163 368.092 204.095C368.355 204.017 368.619 203.978 368.883 203.978C369.029 203.978 369.151 204.017 369.249 204.095C369.356 204.173 369.449 204.324 369.527 204.549C369.605 204.764 369.674 205.071 369.732 205.472C369.801 205.862 369.864 206.375 369.923 207.01C369.962 207.205 369.996 207.356 370.025 207.464C370.064 207.562 370.113 207.61 370.172 207.61C370.26 207.61 370.348 207.459 370.436 207.156C371.148 205.096 372.179 204.065 373.526 204.065C374.151 204.065 374.718 204.261 375.226 204.651C375.743 205.042 376.222 205.682 376.661 206.57C377.11 207.449 377.535 208.611 377.936 210.057C378.336 211.492 378.736 213.265 379.137 215.374C379.156 215.481 379.171 215.579 379.181 215.667C379.19 215.755 379.195 215.838 379.195 215.916C379.195 216.141 379.142 216.336 379.034 216.502C378.937 216.658 378.805 216.79 378.639 216.897C378.473 216.995 378.287 217.068 378.082 217.117C377.877 217.176 377.672 217.205 377.467 217.205C377.057 217.205 376.759 217.161 376.573 217.073C376.397 216.985 376.285 216.819 376.236 216.575C375.953 215.091 375.675 213.772 375.401 212.62C375.138 211.468 374.874 210.501 374.61 209.72C374.356 208.929 374.103 208.328 373.849 207.918C373.595 207.508 373.341 207.303 373.087 207.303C372.833 207.303 372.594 207.464 372.369 207.786C372.154 208.099 371.944 208.592 371.739 209.266C371.534 209.939 371.334 210.794 371.139 211.829C370.953 212.864 370.772 214.1 370.597 215.535C370.548 215.926 370.353 216.238 370.011 216.473C369.669 216.707 369.234 216.824 368.707 216.824C368.355 216.824 368.087 216.751 367.901 216.604C367.716 216.458 367.613 216.258 367.594 216.004C367.506 213.973 367.408 212.303 367.301 210.994C367.203 209.676 367.11 208.621 367.022 207.83C366.935 207.029 366.861 206.434 366.803 206.043C366.744 205.652 366.715 205.364 366.715 205.179ZM388.482 205.574C388.951 205.574 389.396 205.613 389.815 205.691C390.235 205.76 390.616 205.838 390.958 205.926C391.3 206.004 391.593 206.082 391.837 206.16C392.081 206.229 392.257 206.263 392.364 206.263C392.452 206.263 392.535 206.219 392.613 206.131C392.691 206.033 392.789 205.931 392.906 205.823C393.023 205.716 393.18 205.618 393.375 205.53C393.57 205.433 393.829 205.384 394.151 205.384C394.522 205.384 394.815 205.481 395.03 205.677C395.245 205.862 395.353 206.097 395.353 206.38C395.353 209.954 395.23 212.991 394.986 215.491C394.742 217.981 394.347 220.008 393.8 221.57C393.253 223.133 392.545 224.266 391.676 224.969C390.807 225.672 389.752 226.023 388.512 226.023C387.945 226.023 387.354 225.896 386.739 225.643C386.134 225.389 385.577 225.062 385.069 224.661C384.562 224.271 384.142 223.836 383.81 223.357C383.487 222.879 383.326 222.42 383.326 221.98C383.326 221.834 383.404 221.663 383.561 221.468C383.717 221.272 383.907 221.082 384.132 220.896C384.356 220.711 384.591 220.555 384.835 220.428C385.079 220.301 385.289 220.237 385.465 220.237C385.65 220.237 385.807 220.311 385.934 220.457C386.061 220.613 386.178 220.804 386.285 221.028C386.402 221.253 386.52 221.497 386.637 221.761C386.754 222.034 386.9 222.283 387.076 222.508C387.252 222.732 387.467 222.918 387.721 223.064C387.975 223.221 388.292 223.299 388.673 223.299C390.802 223.299 392.052 220.047 392.423 213.543C392.423 213.25 392.34 213.104 392.174 213.104C392.037 213.104 391.93 213.172 391.852 213.309C390.934 214.549 389.859 215.481 388.629 216.106C387.408 216.722 386.051 217.029 384.557 217.029C383.863 217.029 383.224 216.927 382.638 216.722C382.052 216.507 381.544 216.214 381.114 215.843C380.694 215.462 380.367 215.013 380.133 214.495C379.898 213.968 379.781 213.392 379.781 212.767C379.781 212.151 379.889 211.546 380.104 210.95C380.328 210.345 380.636 209.778 381.026 209.251C381.427 208.714 381.9 208.221 382.447 207.771C382.994 207.322 383.59 206.937 384.234 206.614C384.879 206.282 385.558 206.028 386.271 205.853C386.993 205.667 387.73 205.574 388.482 205.574ZM385.011 214.334C386.349 214.334 387.574 213.914 388.688 213.074C389.801 212.225 390.753 210.994 391.544 209.383C391.563 209.324 391.578 209.28 391.588 209.251C391.598 209.212 391.603 209.173 391.603 209.134C391.603 209.036 391.5 208.934 391.295 208.826C391.09 208.719 390.821 208.626 390.489 208.548C390.157 208.47 389.776 208.406 389.347 208.357C388.927 208.299 388.502 208.27 388.072 208.27C387.379 208.27 386.71 208.387 386.065 208.621C385.421 208.855 384.85 209.168 384.352 209.559C383.854 209.949 383.453 210.394 383.15 210.892C382.848 211.39 382.696 211.907 382.696 212.444C382.696 213.021 382.906 213.479 383.326 213.821C383.756 214.163 384.317 214.334 385.011 214.334Z" fill="black"/>
<defs>
<linearGradient id="paint0_linear" x1="340.5" y1="58.5" x2="113" y2="384" gradientUnits="userSpaceOnUse">
<stop stop-color="#FC1EA3"/>
<stop offset="1" stop-color="white" stop-opacity="0"/>
</linearGradient>
</defs>
</svg>
